<svg width="32" height="51" viewBox="0 0 32 51" fill="none" xmlns="http://www.w3.org/2000/svg">
<path id="Union" fill-rule="evenodd" clip-rule="evenodd" d="M14.8165 0C11.0291 0 7.95883 3.07026 7.95883 6.85761V26.5698C7.95883 30.3571 11.0291 33.4274 14.8165 33.4274H16.2231C20.0105 33.4274 23.0808 30.3572 23.0808 26.5698V6.85762C23.0808 3.07026 20.0105 0 16.2231 0H14.8165ZM3.2576 21.4889C3.65627 21.4889 3.97945 21.812 3.97945 22.2107V24.3956C3.97945 30.9603 9.18407 36.2128 15.5199 36.2128C21.8557 36.2128 27.0603 30.9603 27.0603 24.3956V22.2107C27.0603 21.812 27.3835 21.4889 27.7821 21.4889H30.3179C30.7165 21.4889 31.0397 21.812 31.0397 22.2107V24.3956C31.0397 32.4012 25.1694 39.0685 17.5095 40.064V46.1616H23.1544C23.5531 46.1616 23.8762 46.4848 23.8762 46.8835V49.4192C23.8762 49.8179 23.5531 50.1411 23.1544 50.1411H7.8844C7.48573 50.1411 7.16254 49.8179 7.16254 49.4192V46.8835C7.16254 46.4848 7.48573 46.1616 7.8844 46.1616H13.53V40.064C5.87018 39.0684 0 32.4011 0 24.3956V22.2107C0 21.812 0.323185 21.4889 0.721854 21.4889H3.2576Z" fill="black"/>
</svg>
