<svg xmlns="http://www.w3.org/2000/svg" width="20" height="21" viewBox="0 0 20 21" fill="none">
<rect x="0.5" y="1" width="19" height="19" rx="9.5" stroke="#898394"/>
<path fill-rule="evenodd" clip-rule="evenodd" d="M10.9281 12.3817L10.8948 12.8942H8.76387C8.76387 12.1101 8.85821 11.4857 9.04689 11.0208C9.23557 10.556 9.58102 10.0982 10.0832 9.64735C10.5855 9.19652 10.9198 8.82969 11.0863 8.54688C11.2528 8.26406 11.336 7.96584 11.336 7.65222C11.336 6.70576 10.9032 6.23253 10.0375 6.23253C9.6268 6.23253 9.298 6.35994 9.05105 6.61475C8.80411 6.86957 8.67508 7.22099 8.66398 7.66902H6.25C6.2611 6.59935 6.60377 5.7621 7.27802 5.15726C7.95228 4.55242 8.87209 4.25 10.0375 4.25C11.2139 4.25 12.1268 4.53702 12.7761 5.11106C13.4254 5.68509 13.75 6.49574 13.75 7.54301C13.75 8.01904 13.6446 8.46847 13.4337 8.8913C13.2228 9.31412 12.8538 9.78315 12.3266 10.2984L11.6523 10.9452C11.2306 11.3541 10.9892 11.8329 10.9281 12.3817ZM10.8489 16.3885C10.602 16.6294 10.2759 16.7498 9.87084 16.7498C9.46573 16.7498 9.13971 16.6294 8.89276 16.3885C8.64581 16.1477 8.52234 15.8425 8.52234 15.4729C8.52234 15.0977 8.64859 14.7882 8.90108 14.5446C9.15358 14.301 9.47683 14.1792 9.87084 14.1792C10.2648 14.1792 10.5881 14.301 10.8406 14.5446C11.0931 14.7882 11.2193 15.0977 11.2193 15.4729C11.2193 15.8425 11.0959 16.1477 10.8489 16.3885Z" fill="#898394"/>
</svg>