<svg width="24" height="24" viewBox="0 0 24 24" fill="none" xmlns="http://www.w3.org/2000/svg">
<g id="BTN/16/Solid/Gray/Question/Nor">
<rect id="Rectangle" width="24" height="24" rx="12" fill="#CBC8CF"/>
<path id="?" fill-rule="evenodd" clip-rule="evenodd" d="M13.1138 14.2581L13.0738 14.873H10.5166C10.5166 13.9321 10.6299 13.1828 10.8563 12.625C11.0827 12.0672 11.4972 11.5178 12.0999 10.9768C12.7026 10.4358 13.1038 9.99563 13.3036 9.65625C13.5033 9.31687 13.6032 8.95901 13.6032 8.58266C13.6032 7.44691 13.0838 6.87903 12.045 6.87903C11.5522 6.87903 11.1576 7.03192 10.8613 7.3377C10.5649 7.64348 10.4101 8.06519 10.3968 8.60282H7.5C7.51332 7.31922 7.92453 6.31452 8.73363 5.58871C9.54273 4.8629 10.6465 4.5 12.045 4.5C13.4567 4.5 14.5522 4.84442 15.3313 5.53327C16.1104 6.22211 16.5 7.19489 16.5 8.45161C16.5 9.02285 16.3735 9.56216 16.1204 10.0696C15.8674 10.5769 15.4245 11.1398 14.7919 11.7581L13.9828 12.5343C13.4767 13.0249 13.187 13.5995 13.1138 14.2581ZM13.0189 19.0666C12.7226 19.3556 12.3313 19.5001 11.8452 19.5001C11.3591 19.5001 10.9678 19.3556 10.6715 19.0666C10.3752 18.7776 10.227 18.4114 10.227 17.9678C10.227 17.5176 10.3785 17.1463 10.6815 16.8539C10.9845 16.5616 11.3724 16.4154 11.8452 16.4154C12.318 16.4154 12.7059 16.5616 13.0089 16.8539C13.3119 17.1463 13.4634 17.5176 13.4634 17.9678C13.4634 18.4114 13.3152 18.7776 13.0189 19.0666Z" fill="white"/>
</g>
</svg>
