<svg width="252" height="170" viewBox="0 0 252 170" fill="none" xmlns="http://www.w3.org/2000/svg">
<g id="Group 21575">
<rect id="Rectangle 41735" width="252" height="169" fill="white"/>
<path id="Vector" d="M60 93.9238V31.89C60 26.9266 64.2078 22.9812 69.1645 22.7237C82.7279 22.0192 103.234 18.2315 120.515 6.93698C123.831 4.76979 128.169 4.76979 131.485 6.93698C148.766 18.2315 169.272 22.0192 182.836 22.7237C187.792 22.9812 192 26.9266 192 31.89V93.9238C192 110.074 184.414 125.286 171.514 135.003L141.471 157.632C132.311 164.532 119.689 164.532 110.529 157.632L80.4861 135.003C67.5863 125.286 60 110.074 60 93.9238Z" fill="url(#paint0_linear_278_3540)"/>
<g id="Ellipse 3014" filter="url(#filter0_b_278_3540)">
<circle cx="125.5" cy="86.5" r="50.5" fill="url(#paint1_linear_278_3540)" fill-opacity="0.5"/>
<circle cx="125.5" cy="86.5" r="49.8993" stroke="url(#paint2_linear_278_3540)" stroke-width="1.20149"/>
</g>
<g id="Union">
<path fill-rule="evenodd" clip-rule="evenodd" d="M114.538 70.3846C114.538 66.1362 117.982 62.6923 122.231 62.6923H128C132.248 62.6923 135.692 66.1362 135.692 70.3846V77.1153H114.538V70.3846ZM107.261 77.1153H106.846V70.3846C106.846 61.8879 113.734 55 122.231 55H128C136.497 55 143.384 61.8879 143.384 70.3846V77.1153H142.97C145.323 77.1153 147.231 79.023 147.231 81.3762V113.239C147.231 115.592 145.323 117.5 142.97 117.5H107.261C104.908 117.5 103 115.592 103 113.239V81.3762C103 79.023 104.908 77.1153 107.261 77.1153ZM128 101.468C130.273 100.387 131.846 98.0697 131.846 95.3847C131.846 91.6674 128.832 88.654 125.115 88.654C121.397 88.654 118.384 91.6674 118.384 95.3847C118.384 98.0698 119.956 100.388 122.23 101.468V106.923C122.23 108.517 123.522 109.808 125.115 109.808C126.708 109.808 128 108.517 128 106.923V101.468Z" fill="url(#paint3_linear_278_3540)"/>
<path d="M135.692 77.1153V77.6153H136.192V77.1153H135.692ZM114.538 77.1153H114.038V77.6153H114.538V77.1153ZM106.846 77.1153H106.346V77.6153H106.846V77.1153ZM143.384 77.1153V77.6153H143.884V77.1153H143.384ZM128 101.468L127.785 101.016L127.5 101.152V101.468H128ZM122.23 101.468H122.73V101.152L122.445 101.016L122.23 101.468ZM122.231 62.1923C117.706 62.1923 114.038 65.8601 114.038 70.3846H115.038C115.038 66.4124 118.258 63.1923 122.231 63.1923V62.1923ZM128 62.1923H122.231V63.1923H128V62.1923ZM136.192 70.3846C136.192 65.8601 132.524 62.1923 128 62.1923V63.1923C131.972 63.1923 135.192 66.4124 135.192 70.3846H136.192ZM136.192 77.1153V70.3846H135.192V77.1153H136.192ZM135.692 76.6153H114.538V77.6153H135.692V76.6153ZM114.038 70.3846V77.1153H115.038V70.3846H114.038ZM107.261 76.6153H106.846V77.6153H107.261V76.6153ZM107.346 77.1153V70.3846H106.346V77.1153H107.346ZM107.346 70.3846C107.346 62.1641 114.01 55.5 122.231 55.5V54.5C113.458 54.5 106.346 61.6118 106.346 70.3846H107.346ZM122.231 55.5H128V54.5H122.231V55.5ZM128 55.5C136.22 55.5 142.884 62.1641 142.884 70.3846H143.884C143.884 61.6118 136.773 54.5 128 54.5V55.5ZM142.884 70.3846V77.1153H143.884V70.3846H142.884ZM143.384 76.6153H142.97V77.6153H143.384V76.6153ZM147.731 81.3762C147.731 78.7469 145.599 76.6153 142.97 76.6153V77.6153C145.047 77.6153 146.731 79.2991 146.731 81.3762H147.731ZM147.731 113.239V81.3762H146.731V113.239H147.731ZM142.97 118C145.599 118 147.731 115.868 147.731 113.239H146.731C146.731 115.316 145.047 117 142.97 117V118ZM107.261 118H142.97V117H107.261V118ZM102.5 113.239C102.5 115.868 104.632 118 107.261 118V117C105.184 117 103.5 115.316 103.5 113.239H102.5ZM102.5 81.3762V113.239H103.5V81.3762H102.5ZM107.261 76.6153C104.632 76.6153 102.5 78.7469 102.5 81.3762H103.5C103.5 79.2991 105.184 77.6153 107.261 77.6153V76.6153ZM131.346 95.3847C131.346 97.8695 129.891 100.016 127.785 101.016L128.214 101.919C130.656 100.759 132.346 98.2699 132.346 95.3847H131.346ZM125.115 89.154C128.556 89.154 131.346 91.9436 131.346 95.3847H132.346C132.346 91.3913 129.108 88.154 125.115 88.154V89.154ZM118.884 95.3847C118.884 91.9436 121.674 89.154 125.115 89.154V88.154C121.121 88.154 117.884 91.3913 117.884 95.3847H118.884ZM122.445 101.016C120.339 100.016 118.884 97.8696 118.884 95.3847H117.884C117.884 98.27 119.574 100.76 122.016 101.919L122.445 101.016ZM122.73 106.923V101.468H121.73V106.923H122.73ZM125.115 109.308C123.798 109.308 122.73 108.24 122.73 106.923H121.73C121.73 108.793 123.246 110.308 125.115 110.308V109.308ZM127.5 106.923C127.5 108.24 126.432 109.308 125.115 109.308V110.308C126.984 110.308 128.5 108.793 128.5 106.923H127.5ZM127.5 101.468V106.923H128.5V101.468H127.5Z" fill="url(#paint4_linear_278_3540)"/>
</g>
<g id="Union_2" filter="url(#filter1_b_278_3540)">
<path fill-rule="evenodd" clip-rule="evenodd" d="M59.999 64C48.4737 64.7611 36.5991 67.265 27.9738 70.6326C23.6801 72.309 20.0178 74.2532 17.5454 76.405C15.127 78.5098 13.357 81.288 14.28 84.4337C15.1351 87.3483 18.095 89.6415 22.4088 91.5206C26.8482 93.4545 33.2795 95.1908 42.0385 96.6558C59.5136 99.5784 86.644 101.482 126.654 101.496C126.726 101.496 126.798 101.496 126.869 101.496C126.941 101.496 127.013 101.496 127.085 101.496C167.093 101.482 194.117 99.5788 211.431 96.6559C220.109 95.1911 226.451 93.4538 230.796 91.5148C235.01 89.6336 237.903 87.3127 238.614 84.3378C239.368 81.1864 237.459 78.4509 234.969 76.3792C232.403 74.2441 228.657 72.3065 224.284 70.6316C215.502 67.2688 203.524 64.7611 191.999 64L191.999 68C203.187 68.7389 214.5 71.1683 222.853 74.3671C227.047 75.9731 230.33 77.7225 232.411 79.4541C234.568 81.249 234.927 82.5598 234.724 83.4079C234.479 84.4325 233.194 86.0641 229.165 87.8621C225.267 89.6023 219.302 91.2707 210.766 92.7117C193.746 95.5849 166.915 97.4888 126.869 97.4956C86.8242 97.4888 59.8833 95.5847 42.6984 92.7106C34.0805 91.2692 28.014 89.5993 24.0063 87.8535C19.8731 86.053 18.4366 84.393 18.1181 83.3076C17.8675 82.4533 18.1464 81.1847 20.1714 79.4223C22.1425 77.7068 25.3181 75.9635 29.4286 74.3587C37.6116 71.1638 48.8108 68.7389 59.999 68L59.999 64Z" fill="url(#paint5_linear_278_3540)" fill-opacity="0.5"/>
</g>
</g>
<defs>
<filter id="filter0_b_278_3540" x="64.7015" y="25.7015" width="121.597" height="121.597" filterUnits="userSpaceOnUse" color-interpolation-filters="sRGB">
<feFlood flood-opacity="0" result="BackgroundImageFix"/>
<feGaussianBlur in="BackgroundImageFix" stdDeviation="5.14925"/>
<feComposite in2="SourceAlpha" operator="in" result="effect1_backgroundBlur_278_3540"/>
<feBlend mode="normal" in="SourceGraphic" in2="effect1_backgroundBlur_278_3540" result="shape"/>
</filter>
<filter id="filter1_b_278_3540" x="3.73274" y="53.7015" width="245.347" height="58.0927" filterUnits="userSpaceOnUse" color-interpolation-filters="sRGB">
<feFlood flood-opacity="0" result="BackgroundImageFix"/>
<feGaussianBlur in="BackgroundImageFix" stdDeviation="5.14925"/>
<feComposite in2="SourceAlpha" operator="in" result="effect1_backgroundBlur_278_3540"/>
<feBlend mode="normal" in="SourceGraphic" in2="effect1_backgroundBlur_278_3540" result="shape"/>
</filter>
<linearGradient id="paint0_linear_278_3540" x1="126" y1="3" x2="126" y2="169.286" gradientUnits="userSpaceOnUse">
<stop stop-color="#3A4E75"/>
<stop offset="1" stop-color="#1E1E1E"/>
</linearGradient>
<linearGradient id="paint1_linear_278_3540" x1="65.6647" y1="90.1476" x2="210.265" y2="102.492" gradientUnits="userSpaceOnUse">
<stop stop-color="white"/>
<stop offset="1" stop-color="white" stop-opacity="0.28"/>
</linearGradient>
<linearGradient id="paint2_linear_278_3540" x1="65.0804" y1="27.8309" x2="127.14" y2="117.747" gradientUnits="userSpaceOnUse">
<stop stop-color="white"/>
<stop offset="1" stop-color="#F1EBFF" stop-opacity="0"/>
</linearGradient>
<linearGradient id="paint3_linear_278_3540" x1="98.0855" y1="55" x2="183.828" y2="100.362" gradientUnits="userSpaceOnUse">
<stop offset="0.37035" stop-color="white"/>
<stop offset="1" stop-color="white" stop-opacity="0"/>
</linearGradient>
<linearGradient id="paint4_linear_278_3540" x1="125.115" y1="55" x2="125.115" y2="117.5" gradientUnits="userSpaceOnUse">
<stop stop-color="white" stop-opacity="0"/>
<stop offset="1" stop-color="white"/>
</linearGradient>
<linearGradient id="paint5_linear_278_3540" x1="-6.74202" y1="84.102" x2="250.121" y2="215.535" gradientUnits="userSpaceOnUse">
<stop stop-color="#C5C4F0"/>
<stop offset="1" stop-color="#C5C4F0" stop-opacity="0.28"/>
</linearGradient>
</defs>
</svg>
